<?xml version="1.0" encoding="utf-8"?>
<!-- Generator: Adobe Illustrator 21.0.2, SVG Export Plug-In . SVG Version: 6.00 Build 0)  -->
<svg version="1.1" id="Group_144_copy_1_" xmlns="http://www.w3.org/2000/svg" xmlns:xlink="http://www.w3.org/1999/xlink" x="0px"
	 y="0px" viewBox="0 0 406 407" style="enable-background:new 0 0 406 407;" xml:space="preserve">
<style type="text/css">
	.st0{fill-rule:evenodd;clip-rule:evenodd;fill:#E5E5E5;}
</style>
<g id="Group_145_copy_2_1_">
	<g id="Rectangle_4_copy_2">
		<g>
			<path class="st0" d="M320.6,377.8c22.3-14.9,41.5-34.1,56.4-56.4l-48.3,8.2L320.6,377.8z M36.6,322.4
				c14.6,21.6,33.3,40.2,54.9,54.8l-8.4-46.5L36.6,322.4z M93.9,36.1C70.5,51.5,50.5,71.5,35.1,94.9l51.1-7.7L93.9,36.1z
				 M308.2,135.9h90.6c-3.9-10.4-8.6-20.4-14-29.9H308V29.2c-9.6-5.5-19.6-10.2-30.1-14.1v90.7H135.1V15.2
				c-10.5,3.9-20.5,8.6-30.1,14.1v76.7H28.2c-5.4,9.5-10.2,19.5-14,29.9h90.6V279H14.2c3.9,10.4,8.6,20.4,14,29.9H105v76.7
				c9.6,5.5,19.7,10.2,30.1,14.1v-90.7h142.8v90.7c10.5-3.9,20.5-8.6,30.1-14.1v-76.7h76.8c5.4-9.5,10.2-19.5,14-29.9h-90.6V135.9z
				 M277.9,279H135.1V135.9h142.8V279z M378,94.9c-15.4-23.4-35.5-43.4-58.9-58.8l7.7,51.1L378,94.9z"/>
		</g>
	</g>
</g>
<g id="Group_146_1_">
	<g id="Shape_1363">
		<g>
			<polygon class="st0" points="149.3,153 149.4,235.6 232.1,153 			"/>
		</g>
	</g>
	<g id="Shape_1363_copy">
		<g>
			<polygon class="st0" points="322.4,153 322.5,235.6 405.2,153 			"/>
		</g>
	</g>
	<g id="Shape_1363_copy_2">
		<g>
			<polygon class="st0" points="10.6,153 4.8,217.4 70.6,153 			"/>
		</g>
	</g>
</g>
<g id="Group_146_copy_1_">
	<g id="Shape_1363_1_">
		<g>
			<polygon class="st0" points="149.3,9.7 149.4,64.6 214.7,2 			"/>
		</g>
	</g>
</g>
<g id="Group_146_copy_2_1_">
	<g id="Shape_1363_2_">
		<g>
			<path class="st0" d="M149.3,326c0,0,0.1,58.3,0.1,77c1.6,0.4,2.3,1.4,4.2,1.6c16.7-16.7,78.5-78.5,78.5-78.5H149.3z"/>
		</g>
	</g>
</g>
</svg>
